<svg xmlns="http://www.w3.org/2000/svg" width="1200" height="900" viewBox="0 0 1200 900" role="img" aria-labelledby="title desc">
  <title id="title">Portfolio workspace placeholder</title>
  <desc id="desc">A calm desk-like portfolio illustration with product and content blocks.</desc>
  <rect width="1200" height="900" fill="#f5f6f2"/>
  <rect x="92" y="100" width="1016" height="700" rx="18" fill="#fffefd" stroke="#e0e2dc"/>
  <rect x="160" y="170" width="520" height="330" rx="14" fill="#eef1ed" stroke="#d8ddd5"/>
  <rect x="200" y="214" width="210" height="18" rx="9" fill="#22231f"/>
  <rect x="200" y="260" width="390" height="12" rx="6" fill="#bfc7bd"/>
  <rect x="200" y="292" width="320" height="12" rx="6" fill="#d3d8d0"/>
  <rect x="200" y="356" width="124" height="42" rx="21" fill="#22231f"/>
  <rect x="342" y="356" width="124" height="42" rx="21" fill="#fffefd" stroke="#d6d9d2"/>
  <rect x="735" y="170" width="300" height="130" rx="14" fill="#fffefd" stroke="#d8ddd5"/>
  <rect x="770" y="204" width="80" height="80" rx="12" fill="#819487"/>
  <rect x="878" y="211" width="112" height="12" rx="6" fill="#22231f"/>
  <rect x="878" y="244" width="92" height="10" rx="5" fill="#cbd1c7"/>
  <rect x="735" y="330" width="300" height="270" rx="14" fill="#f8f8f5" stroke="#d8ddd5"/>
  <rect x="770" y="368" width="205" height="14" rx="7" fill="#22231f"/>
  <rect x="770" y="408" width="198" height="10" rx="5" fill="#c4cbc1"/>
  <rect x="770" y="440" width="150" height="10" rx="5" fill="#d7dbd4"/>
  <rect x="770" y="500" width="76" height="76" rx="12" fill="#e6e8e2"/>
  <rect x="868" y="500" width="76" height="76" rx="12" fill="#d5ddd5"/>
  <rect x="240" y="566" width="500" height="122" rx="14" fill="#fffefd" stroke="#d8ddd5"/>
  <rect x="280" y="602" width="170" height="12" rx="6" fill="#22231f"/>
  <rect x="280" y="636" width="370" height="10" rx="5" fill="#c8cec4"/>
  <rect x="280" y="666" width="280" height="10" rx="5" fill="#d9ddd6"/>
  <circle cx="995" cy="712" r="28" fill="#819487"/>
  <circle cx="930" cy="714" r="12" fill="#c9d2ca"/>
  <path d="M120 760C230 708 334 722 430 760C530 800 633 806 742 764C856 720 970 724 1084 760" fill="none" stroke="#d7ddd4" stroke-width="3"/>
</svg>
